<?xml version="1.0" encoding="UTF-8"?><svg id="Layer_1" xmlns="http://www.w3.org/2000/svg" viewBox="0 0 1150.43 377.46"><path d="M1051.83,298.62c-1.08-1.33-1.62-13.65-1.67-16.35-.39-21.86,4.68-46.9,13.07-67.26l2.83-11.97c-6.84,1.34-13.95,8.28-20.74,4.97-4.06,7.26-7.99,14.71-12.45,21.74-2.07,3.27-5.59,6.91-7.36,9.73-5.97,9.52-15.83,32.91-26.91,35.61-10.41,2.53-12.62-2.57-11.77-11.75.84-9.04,4.96-18.7,5.2-27.9-5.65,8.99-9.68,18.56-17.97,25.71-9.15,7.88-18.03,6.71-18.34-6.69-.63-.08-.91-.11-1.42.34-.76.66-3.94,9.74-5,11.76-4.06,7.7-17.76,29.13-24.65,33.27-4.53,2.72-10.03,2.85-14.28-.42-2.9-2.24-5.12-5.38-5.92-8.88-1.95-8.55,1.68-20.35,3.86-28.84,2.48-9.63,7.43-18.95,9.25-28.8.4-2.19,1.3-12.37-1.09-12.95-6.68-.63-11.98,3.46-16.93,7.31-9.33,7.25-17.93,20.21-23.78,30.82-3.55,6.43-3.56,10.66-5.91,16.63-1.44,3.67-4.87,7.79-6.63,11.69-4.17,9.25-8.46,19.15-12.34,28.52-3.71,8.97-6.2,20.92-10.26,29.19-1.59,3.23-6,5.23-6.77.69-1.02-6.02,7.59-17.58,10.27-23.25l27.67-64.95c-8.51,7.73-15.25,17.14-23.53,25.07-5.36,5.13-24.29,21.28-30.43,23.48-9.93,3.56-20.8,1.79-24.82-8.95-4.67-12.49.55-24.94,5.54-36.35l9.08-15.22c-.87-.87-5.06,4.78-5.97,5.65-13.57,12.87-27.01,31.08-42.74,41.11-4.6,2.93-6.74,4.21-11.84,1.39-1.8-1-3.66-2.14-4.16-4.29-2.26-9.81,9.91-30.07,13.23-39.64-4.47,2.7-14.18,7.57-14.44-1.4l-4.6,8.63c-10.45,16.32-19.71,35.49-32.43,50.65-2.4,2.86-7.99,6.87-11.36,8.57-2.63,1.33-11.7,3.56-12.42,4.14-2,1.6-4.68,10.42-9.79,13.78-3.7,2.43-12.46,5.7-16.77,5.03-5.03-.79-10.68-7.3-11.92-12.07-2.01-7.74.38-18.04,3.22-25.4,2.68-6.94,7.19-13.52,10.4-20.23l-10.84,10.64c-11.36,13.04-29.17,36.4-48.64,34.37-21.39-2.23-17.24-27.23-12.68-42.03,11.93-38.71,51.71-86.64,91.59-98.01,11.19-3.19,20.97,1.34,30.62-1.81,8.84-2.89,10.4-13.39,18.86-15.67.86-.23,8.55-1.63,9-1.6,2,.15,1.98,2.32,1.82,3.92-.02.22-2.23,3.49-2.38,3.64-4.36,4.47-13.53,7.22-17.75,12.2-5.56,6.57-8.51,18.09-12.11,25.93-7.28,15.84-16.87,27.11-26.32,41.31-9.13,13.72-34.02,56.26-31.62,71.61.46,2.93,2.52,7.46,5.31,8.84,12.68,6.27,19.04-5.31,24.19-15.03.18-2.01-2.83-3.74-3.71-6.12-1.08-2.94-1.09-8.96-.4-11.99,1.09-4.75,9.07-4.35,11.43-.44,2.06,3.41.25,11.37.42,15.44.92,1.24,16.51-9.14,18.08-10.81,3.76-4.01,7.34-11.23,10.51-15.9,13.99-20.6,25.84-42.01,33.62-65.71,1.15-3.51,5.28-18.02,8.74-18.68,5.21-.99,5.22,7.23,4.32,10.6-1.83,6.83-8.53,13.17-10.76,18.83-.98,2.48-3.26,11.37-3.21,13.77.05,2.32,1.35,3.41,3.56,2.84.65-.17,6.91-2.46,7.27-2.66,6.68-3.76,10.74-19.72,13.75-26.4,1.67-3.72,6.86-12.54,11.25-7.82,1.14,5.36-1.08,9.47-3.82,13.84-4.96,7.92-11.86,15.31-16.78,23.38-4.72,7.73-16.59,29.85-12.29,38.24,3.12,6.08,7.76-.2,10.73-2.11,15.42-9.92,21.58-20.13,33.62-33.01,9.76-10.45,25.93-23.25,38.12-30.91,6.63-4.17,16.11-10.31,17.91,1.69,2.47-1.8,14.12-17.73,17.68-12.71,1.28,3.9-2.31,7.4-4.68,10.04-9.07,10.11-22.46,16.68-30.26,28.38l-2.11.35c-1.31-1.29,7.38-10.31,8.33-11.74,2.93-4.42,5.75-10.41,5.77-15.72-9.06-1.23-13.77,5.88-19.6,11.26-1.47,1.36-3.55,2.3-5.12,3.84-11.28,11.18-23.82,36.22-22.57,52.16.79,10.07,12.39,14.98,20.98,11.03,16.71-7.68,30.99-24.39,43.56-37.48,10.2-10.62,15.17-13.11,21.87-27.45,8.54-18.28,15.66-37.66,23.49-56.11,11.38-26.81,22.25-53.42,32.93-80.48,2.43-6.17,8.98-23.32,12.34-27.81,8.28-11.07,18.1.08,18.25,10.64.17,11.65-11.4,38.83-16.65,50.09-10.61,22.76-24.15,45.94-37.83,67.16-5.12,7.95-10.67,15.66-15.95,23.51-.29.85.17,1.42,1.04,1.04,1.63-.72,5.3-4.29,7.31-5.38,3.93-2.13,7.65-3.81,11.74-.95,3.41,2.39,5.07,11.04,4.42,14.98-2.74,16.41-16.31,39.34-14.95,55.55.61,7.29,6.32,11.31,13.32,9.01,8.07-2.65,17.49-20.44,21.34-27.98,8.51-16.69,14.79-34.92,21.37-52.59,1.64-4.41,3.4-12.84,5.47-16.37.97-1.65,2.86-2.25,4.04-3.67,2.97,1.94,2.43,4.12,1.57,7.14-4.78,16.84-16.51,31.95-15.37,50.9.42,6.98,4.6,10.52,10.78,6,15.25-11.15,18.63-28.65,24.94-45,1.76-4.54,4.54-9.4,6.29-14.14,1.13-3.05.38-6.85,4.23-9.17.79-.17,1.42.47,1.64,1.16,1.5,4.71-5.19,13.44-5.81,18-.23,1.68,1.13,2.17.91,3.56-.16,1.04-1.35,1.82-1.64,2.68-3.02,9.01-6.43,21.99-8.09,31.35-.63,3.53-2.55,16.64-2.19,19.59.88,7.17,9.55,3.15,12.68.03,6.74-6.72,13.25-19.94,18.39-28.13,1.01-1.6,2.59-2.55,3.31-3.69,9.61-15.43,16.71-32.22,24.83-48.46,1.22-.3,3.68-1.24,3.57.73-.25,4.71-4.61,10.17-4.94,15.12,1.01,1.4,10.19-1.07,11.79-1.87,1.14-.57,1.24-1.97,2.45-2.52,1.2-.56,2.72-.39,4.02-.92,4.04-1.66,6.8-12,8.6-16.08,3.98-3.05,6.67-11.36,13.02-8.99,1.15.43,1.31,2.19,3.68,1.65,2.88,5.68-3.36,12.72-7.23,16.49-3.18,3.11-11.31,7.27-13.1,9.78-1.32,1.85-4.23,10.5-5.11,13.21-3.47,10.71-10.84,42.55-10.37,52.99.1,2.19,1.44,5.9,1.32,7.8-.06,1.07-1.28,1.89-1.37,3.44-.29,4.77.32,17.48,2.19,21.66.21.46,5.98,7.57,6.36,7.9,3.02,2.66,11.05,3.71,14.95,3.05,7.54-1.28,18.04-13.46,13.53-20.93-.82-1.36-4.67-3.81-5.97-5.3-2.7-3.11-8.69-11.13-3.78-14.38,1.91-1.26,7.83,1.6,9.47,3.06,5.83,5.18,7.78,17.08,5.25,24.35-2.5,7.2-13.17,17.49-21.2,16.96-1.29-.09-7.13-1.65-8.47-2.14-8.08-2.94-9.81-8.28-14.41-14.51-.44-.6-1.55-.78-1.91-1.22ZM1077.71,190.39c5.14-2.47,9.05-6.74,9.16-12.67-.24-.26-4.83,1.6-5.29,2.13-.87,1-.39,2.67-.77,3.58-.49,1.17-3.68,6.29-3.1,6.97ZM901.85,210.52c22.35-32.38,39.19-65.34,55.63-101.12,3.29-7.16,6.76-19.99,6.76-27.8,0-4.71-2.23-11.09-7.69-10.78-2.42,3.74-5.44,7.25-7.32,11.34-5.53,12.06-9.69,24.68-14.31,37.11-11.53,31.02-26.44,61.1-39.15,91.87l-3.86,12.34c4.11-3.65,6.85-8.49,9.94-12.96ZM808.37,243.9l1.4-1.4h-1.41s0,1.4,0,1.4ZM732.22,170.67v-1.4h-1.4v1.4h1.4ZM669.09,254.8c11.85-14.96,28.91-39.81,35.26-57.39,3.74-10.35-5.42-10.5-13.3-9.77-37.5,3.48-70.96,33.06-88.54,64.53-8.41,15.05-10.15,25.57-14.31,41.89-1.87,7.33-4.29,11.49-2.96,19.63,1.46,8.92,14.02,11.48,21.15,7.68,21.44-11.43,30.05-26.66,44.06-44.72,5.84-7.53,12.76-14.44,18.64-21.86ZM676.51,314.31c1.45-2.46,4.16-14.13-.34-14.12s-3.79,12.69.34,14.12Z"/><path d="M397.16,330.71c.29.31,0,1.34.32,1.7.3.34,7.06,4.37,7.78,4.6,6.98,2.23,18.85-1.19,26.04-3.18,9.51-2.64,16.95-5.89,24.93-11.76l.21-.92c-1.7-4.09-4.27-11.28-4.16-15.61.17-6.38,6.95-25.53,10.71-30.9,9.95-14.19,23.35-6.13,22.47,9.07-.54,9.33-10.79,25.81-16.97,33.05-1.62,1.9-3.91,3.17-5.22,4.66-3.08,3.49,5.44,8.52,8.46,9.06,3.31.59,7.77-.3,11.27.01,7.62.67,26.01,3.15,31.75,7.73,1.41,1.13,4.87,5.92,5.1,7.59.32,2.33-1.42,11.24-2.79,13.13-1.88,2.58-4.83,3.72-7.97,3.23-10.01-1.58,1.86-14.7,2.29-19.5.51-5.67-8.83-6.09-12.92-6.5-10.42-1.04-21.08-.53-31.57-2.85-.55-.12-.65-1.19-1.37-1.61-3.55-2.07-5.14-3.05-7.26-6.82-4.1,2.35-8.7,6.34-13.03,8.1-7.84,3.19-32.84,9.17-40.37,6.52-2.19-.77-13.84-7.96-15.68-9.69-9.1-8.56-10.26-23.8-10.54-35.55-.28-11.66.15-27.68,3.17-38.69,2.31-8.4,6.93-16.78,7.71-25.74-5.45,4.66-8.43,11.62-12.43,17.51-9.46,13.96-17.86,24.49-28.48,37.24-5.11,6.14-4.63,10.96-7.54,16.89-2.14,4.35-6.13,11.74-8.64,16.05-5.03,8.62-12.34,10.02-13.96-1.6-1.01-7.22,2.03-14.33,1.27-20.29-.38-2.95-3.71-6.33-4.12-10.32-1.07-10.52,10.01-30.04,13.96-40.34.6-1.57,3.51-10.21,2.81-10.92-3.5-.37-7.92,2.42-10.54,4.61-7.91,6.62-20.89,28.66-25,38.41-1.94,4.61-4.32,17.45-8.22,19.96-3.47,2.23-10.7,0-9.7-4l12.81-16.11,9.14-14.88c1.96-4.21,17.94-26.08,14.59-29.41-1.42,0-2.86-.25-4.22.37-4.11,1.86-18.02,20.33-21.49,25.01-6.5,8.74-12.11,19.2-18.96,27.89-.9,1.14-6.99,7.94-7.72,8.48-3.18,2.35-7.76-2.45-8.49-5.57-1.07-4.55,1.98-7.78,2.02-11.81-5.09,4.33-8.73,10.94-13.4,15.48-6.54,6.35-22.48,16.22-25.61,1.78.73-17.99,9.81-33.65,15.39-50.36-5.21,2.39-10.35,5.9-15.72,7.88-5.32,1.96-11.75,2.99-16.94-.11-.95-.57-.14-3.99-2.23-3.55-.75.16-3.9,5.23-4.95,6.33-3.11,3.26-9.12,8.42-12.71,11.25-4.38,3.46-15.53,11.29-20.75,11.67-11.05.8-20.07-7.37-17.46-18.85,1.34-5.89,8.54-7.43,10.91-1.42,1.6,4.06,1.47,18.29,8.66,16.75,2.05-.44,15.31-8.86,17.55-10.65,10.61-8.47,22.8-24.13,29.43-35.73,1.37-2.39,1.32-8.25,5.92-6.49l.57,2-13.28,24.2c-.39,4.85,9.05,2.12,11.84,1.17,13.74-4.69,24.7-15.12,33.56-26.34,1.24-1.57,2.07-4,3.22-5.24,1.31-1.42,4.69-2.93,3.92.38-1.37,5.87-6.49,10.82-9.44,15.94-4.01,6.95-9.22,16.19-12.43,23.5-2.76,6.28-10.5,24.83-10.23,30.61.39,8.32,2.01,12.03,10.48,7.67,7.63-3.93,22.43-20.79,27.46-28.17,3.4-4.98,6.75-10.63,9.71-15.68,1.53-2.62,7.04-13.01,10.47-12.04,2.67.76-.66,6.83-1.53,8.25-5.61,9.11-14.52,16.53-18.88,27.66-2.4,6.13-4.94,25.2,5.58,13.32,6.21-7.01,13.17-18.59,19.05-26.74,6.09-8.46,16.4-26.69,25.52-30.85,2.87-1.31,6.04-2.46,7.65,1.33.61,1.43-.25,4.87,1.41,4.2,4.77-1.91,7.16-7.2,13.23-4.74,4.98,2.02,2.71,12.99.83,16.67-5.84,11.45-14.8,22.11-14.4,36.33.06,2.08.08,4.41,1.75,5.95,3.15-4.59,5.79-10.63,12.57-9.74,4.24,1.43-1.06,12.71-3.24,14.48-1.49,1.2-4.24.6-5.76,1.65-2.72,1.88-2.66,18.5-2.49,22.12,4.12,7.52,9.63-4.48,11.39-8.3,3.03-6.59,5.78-19.6,9.15-24.69,1.73-2.61,6.22-5.55,8.09-7.73,7.68-8.91,16.48-22.26,23.12-32.19,11.15-16.67,21-34.27,32.11-51.01-1.24-2.07-3.06-.41-4.57-.49-15.46-.84-30.79-.76-43.37,9.64-4.18,3.45-11.93,15.63-16.82,8.31-.58-2.29,4.08-7.89,6.01-9.24,2.68-1.87,18.4-8.93,21.78-9.94,11.13-3.34,26.74-.04,38.38-1.8,1.88-2.78,4.34-5.09,6.22-7.87,5.65-8.33,14.42-23.72,16.84-33.2.49-1.93.23-3.86.67-5.58.66-2.57,2.12-6.81,5.43-5.76,4.94,1.57-2.22,16.32-3.89,19.2-.72,1.24-2.09,2.15-2.88,3.46-2.13,3.52-18.36,28.99-16.74,30.81,11.99-1.47,23.37,3.03,34.99,4.83,21.77,3.37,43.46,4.62,65.46,5.74,14.84.76,43.75,4.09,56.01-5.34,1.14-.87,2.56-1.99,2.89-3.47.02-3.09-6.58-2.92-8.68-2.32-2.8.8-9.38,9.08-13.26,5.73-4.95-4.29,3.08-8.26,6.38-9.78,6.1-2.81,14.86-5.48,19.78.72s-6.29,14.48-11.52,16.69c-6.48,2.73-10.38,1.78-17.08,1.95-41.64,1.09-81.57-6.56-122.74-11.85-2.2-.28-13.13-1.2-14.37-.45-3.53,5.83-6.51,11.97-9.28,18.19-13.17,29.51-22.23,64.08-17.42,96.5.68,4.58,2.49,13.55,5.55,16.99,1.92,2.17,7.1,3.51,7.61,4.06ZM467.55,311.94c6.69-7.99,11.83-21.34,10.84-31.76-.86-9.11-6.6-8.74-11.87-2.72-6.93,7.9-9.93,21.3-9.27,31.58.19,3.02,1.34,6.41,1.41,9.51,1.2,1.14,7.8-5.3,8.89-6.61ZM325.4,293.89c4.26.25,5.93-4.19,5.64-7.74-5.14-1.08-5.26,3.93-5.64,7.74Z"/><path d="M242.62,187.99c-9.11,12.67-28.15,22.73-43.25,26.16-5.01,1.14-20.9,4.26-25.33,4.14-1.83-.05-4.13-.85-5.86-1.5-10.47-3.99-17.45-13.54-22.92-22.88-.65.3-2.57,5.73-2.94,6.92-12.67,40.23-31.43,76.22-55.93,110.31-3.79,5.28-17.46,20.32-22.76,23.04-3.58,1.83-8.04,2.64-11.62.38-2.11-2.07.79-7.12,2.36-8.92,7.42-8.49,20.31-14.83,28.87-22.57,9.14-8.26,12.45-17.23,18.37-27.43,13.87-23.93,28.9-49.33,37.66-75.75,3.75-11.31-2-25.39-6.15-36.12-.36-.93-.03-2.26-.39-3.13-8.76-20.99-26.05-16.22-41.78-27.28-5.92-4.16-6.84-7.46-10.91-12.34-4.29-5.14-9.48-1.97-15.44-5-7.99-4.05-10.13-15.92-17.66-18.27-3.27-1.02-12.62-.34-13.44-5.64-.91-5.85,8.85-3.09,11.77-1.85,12.67,5.37,11.68,14.02,19.62,21.96,1.78,1.78,11.66,5.15,11.64,1.8,0-.96-1.02-1.96-1.16-2.96-1.24-8.65-1.42-16.84,3-24.8,5.59-10.07,17.9-4.12,18.59,6.62.44,6.88-2.63,13.75-7.71,18.33-4.21,3.81-9.59,2.87-5.82,10.66,3.14,6.48,18.05,15.4,24.96,17.33,3.7,1.03,7.83.9,11.28,2.12,6.08,2.15,12.94,12.2,16.09,17.73,3.63,6.36,5.03,13.41,8.1,20.06,4.37-8.27,6.81-17.73,10.43-26.19,4.92-11.5,16.54-29.42,17.45-41.02.65-8.34-.93-17.31-.64-25.34.15-4.35,1.62-9.85,6.93-6.33.32.21,3.78,4.28,3.9,4.55,3.41,7.4-7.08,25.3-7.38,33.79,2.03-.65,3.24-3.7,4.46-4.69,1.67-1.35,8.78-5.01,11.12-6.15,19.52-9.52,42.23-8.96,57.05,8.55,16.89,19.95,9.42,52.31-4.53,71.72ZM232.11,194.39c18.08-23.09,30.37-47.81,12.09-74.7-.52-.76-3.88-5.45-4.16-5.67-2.77-2.16-17.38-8.12-20.96-8.63-17.85-2.54-37.75,8.57-47.39,23.17-3.01,4.57-3.14,6.62-5.31,11.09-.48.99-1.91,1.66-2.58,3.06-5.17,10.89-15.96,34.1-16.64,45.41-.22,3.72,5.18,10.81,7.63,13.86,9.89,12.3,18.59,14.67,34.11,10.86,14.87-3.65,30.23-10.5,43.22-18.46ZM80.74,112.93c9.95-1.74,17.75-19.47,10.58-27.12-2.34-2.5-6.87-2.28-9.44-.24-4.87,3.88-2.32,21.62-1.15,27.36Z"/><path d="M856.06,61.28c-.09.17-1.9,2.57-2.26,3.04-.39.51-1.69.6-1.77,1.15,5.65,10.14,1.55,21.33-5.29,29.8-4.31,5.34-14.54,12.4-20.81,15.13-3.45,1.5-14.64,5.41-15.15-.95,3.34-6.83,12.63-5.01,18.77-6,4.05-.65,8.55-2.59,11.64-5.31s9.41-12.23,10.57-16.17c.63-2.14.68-13.65-1.46-14.12-7.77,5.88-30.44,12.63-37.74,4.61-4.53-4.98,4.14-15.7,9.72-17.12,8.97-2.27,19.05-.15,26.04,5.7.95.79,1.05,3.08,3.28,2.51,1.03-.26,4.04-6.39,4.37-7.65,2.01-7.6-4.75-13.94-11.27-16.25-11.96-4.23-28.19-1.81-40.02,2.35-19.85,6.97-42.84,34.15-57.21,49.55-4.46,4.78-17.89,16.26-19.32,21.89-.94,3.68-.03,11.43,4.93,9.87,2.22-.7,4.1-3.13,7.51-1.87,2.76,1.63-3.69,7.83-9.06,5.17-5.2-2.57-6.77-9.89-4.97-15.1-1.89-.58-1.08,1.02-1.92,1.37-2.37.98-9.3.89-11.25-.9-3.66-3.35.35-8.37-.23-8.92-2.61-.25-4.19,2.64-6.67,2.72-2.92.1-6.23-2.61-8.66-4.03l-1.09-.03c-3.37,2.54-12.98,7.51-17.01,6.96-1.24-.17-2.63-1.47-3.49-1.31-1.73.32-2.62,6.84-9.97,7.01-7.91.18-13.74-4.42-12.34-12.73-4.33,1.67-10.61,8.55-15.32,6.52-4.76-2.05-5.85-8.09-3.01-12.14l-5.38,4.8c-4.32,2.06-8.83,6.23-13.93,5.72-1.92-.19-3.92-2-4.9-1.94-.9.05-10.95,5.36-13.56,6.15-15.17,4.63-35.38,4.05-49.45-3.34-3-1.57-3.51-4-7.97-2.25-.69-1.99,1.82-1.38,2.07-2.5.16-.74-1.92-4.81-2.11-6.96-.25-2.87.11-7.85,1.75-10.29,1.48-2.2,5.6-4.74,5.88-.84.34,4.69-6.76,9.17-4.25,14.81.34.75-.08,1.07,1.22.86l39.14-39.79c.92-2.1-2.78-.27-3.43.1-4.22,2.34-6.05,8.24-11.31,6.54-.12-.8-.3-1.92.1-2.61.36-.62,7.22-4.87,8.38-5.35,3.37-1.41,7.35-1.47,10.45-3.64,1.06-.74,10.27-11.04,10.62-11.93.48-1.22-.3-.95-1.04-1.05-1.97-.26-4.29.21-6.35,0-5.31-.56-7.84-3.1-12.51.01-6.54,4.36-12.31,3.9-19.62,5.94-3.81,1.06-9.71,3.47-10.32,7.91-.32,2.38,4,8.66.02,9.99-6.9,2.31-6.27-9.57-1.8-13.99,6.71-6.63,20.61-6.08,28.64-9.93,7.33-3.52-.03-3.92-3.06-6.66-1.13-1.02-2.86-2.9-1.85-4.54,6.74-3.41,15.78-1.7,13.89,7.65,4.24,1.78,10.88,2.24,15.34,1.06,1.22-.32,3.92-2.72,5.71-3.43,6.7-2.68,14.97-4.35,22.15-3.1,9.48,1.65,6.2,12.85-.64,16.14-3.56,1.71-7.51,2.36-11.22,3.58-.78.26-1.71.22-1.83,1.33,13.7,1.89,23.58,8.83,18.34,23.94,4.43-1.46,8.99-4.07,13.54-1.38,5.27,3.11-2.76,9.15-4.68,12-2.37,3.52-9.82,16.71-1.49,17.21,3.6.22,11.6-5.89,15.23-7.71,2.95-4.52-2.21-6.73-2.15-9.22,4.81-6.94,5.55,1.34,4.92,6,.45.53,4.35-2.76,4.86-3.24,1.35-1.28,9.07-10.34,9.6-11.59,1.04-2.43-2.71-6.89,3.51-8.86l2.4,1.64c.86,2.61-2.71,5.29-2.62,6.8.06,1.06,2.25,4.04,2.73,5.72,1.2,4.22.57,10.37-.07,14.79-.29,1.97-2.57,3.57-.38,5.38,3.42,2.6,15.59-4.08,18.74-6.79.84-3.71.25-7.67,1.19-11.44.78-3.13,8.89-16.32,12.02-16.92,2.62-.51,5.71,1.37,6.37,3.95,1.95,7.6-11.95,19.43-16.09,25.17,1.68,3.37,5.56,3.61,8.89,2.49,6.46-2.18,7.16-5.15,11.57-8.86,6.06-5.08,20.05-15.24,27.87-15.18,2.39.02,4.97,1.91,6.67,1.14,2.17-.99,8.5-7.74,10.62-9.86,11.2-11.22,20.77-23.02,36.09-28.74,13.95-5.21,35.03-8.8,48.43-.77,2.78,1.66,7.15,7.04,8.13,10.07.61,1.91-1.69,9.19-2.66,11.08ZM846.2,61.77c-5.47-5.81-17.52-5.74-24.61-3.59-2.94.89-8.83,8.82-8.21,11.3,1.95,7.76,23.52,3.29,28.77.78,2.09-1,3.92-2.88,6.11-3.79.66-1-1.31-3.91-2.06-4.7ZM748.68,86.42c1.34-1.4,7.32-4.62,1.53-5.23-9.69-1.02-31.14,14.22-35.19,22.65-3.31,6.89,1.68,9.53,8.03,7.32,3.95-1.38,14.83-12.5,18.35-16.17,2.45-2.55,4.81-5.99,7.28-8.57ZM699.79,96.03c1.21.31,1.41-.5,2.12-1.05,3.36-2.59,10.55-11.49,12.15-15.32,1.14-2.74.5-4.4-1.01-6.73-3.44-1.97-10.25,8.56-11.43,11.2-.8,1.8-3.29,10.82-1.82,11.9ZM672.73,108.45c4.22-6.28,7.54-20.59,1.3-26.49-.86-.19-6.81,8.15-8.07,9.52-3.69,4-9.58,6.97-9.92,12.68-.52,8.67,11.82,11.54,16.68,4.3ZM676.52,74.21c-1.33-.28-1.9.89-2.81,1.75l1.04,1.04,1.76-2.8ZM635.87,92.05c.67-.7,1.82-1.07,2.61-1.96,1.18-1.32,8.33-10.84,7.72-11.65-1.8-.19-3.35-1.46-5.23-1.38-.62.03-7.01,2.51-7.69,2.91-2.33,1.38-4.98,9.24-6.86,12-1.34,1.96-5.6,5.98-7.56,7.56s-8.51,3.72-2.66,5c8.62.37,14.36-6.87,19.67-12.47ZM591.91,55.18c8.38-2.13,31.55-2.85,37.27-8.89,3.19-3.37,5.05-10.26-1.12-11.35-3.93-.69-16.91.75-20.48,2.47-1.16.56-1.27,1.68-2.1,2.33-.5.39-1.52.32-2.08.87-3.83,3.75-7.48,10.54-11.49,14.58ZM546.18,101.05c-1.32,2.27,4.72,5.76,6.33,6.52,13.14,6.18,36.03,4.73,49.42-.48,1.21-.47,8.77-3.92,9.08-4.31.76-.96.64-2.56,1.22-3.71,2.97-5.85,6.63-9.56,11.4-13.96,1.35-1.24,4.94-3.12,5.7-4.17.26-.36,2.6-7.75,2.73-8.54.72-4.53-.12-8.75-3.95-11.46-8.9-6.29-23.36-5.89-33.64-4.26-4.83.77-6,1.26-9.3,4.82-11.79,12.7-24.15,25.32-36.59,38.09-.69.71-1.47,1.15-2.39,1.46ZM621.27,95.08c1.19-1.22,7.39-10.05,6.59-11.02-3.23,2.15-7.08,5.41-9.53,8.43-.67.83-4.32,6.11-4.56,6.72-.33.85.2,1.41,1.04,1.04.38-.17,5.89-4.59,6.46-5.17ZM582.64,35.28c-.76-5.05-9.77-3.55-9.75-2.27,1.06,1.68,8.24,5.75,9.53,3.89.51-.49.31-1.03.22-1.62Z"/><path d="M546.58,143.4c-.88-1.84-10.08-6.09-12.49-6.88-3.56-1.17-7.78-1.85-11.52-1.79l-3.95,9.39c-3.23,2.44-9.71,7.21-13.94,3.81-1.84-1.48-2.21-5.43-.69-7.33.71-.89,8.21-5.88,9.49-6.35,2.24-.83,4.2-.58,6.17-1.58,1.3-1.48,1.26-8.09,1.04-10.21-.44-4.16-3.98-12.37-7.24-14.94-1.25-.99-10.73-3.87-12.88-4.39-5.77-1.4-11.47-1.46-17.46-1.31-4.81,4.86-17.08,19.56-24.48,17.17-4.54-1.47.25-7.65,2.12-9.93,5.47-6.65,14.08-8.76,22.28-10.13l17.92-21.54-.34-1.04c-5.64,4.92-11.99,12.09-19.98,11.84-.28-1.04-1.25-2.28-1.4-3.23-.88-5.54,11.35-21.75,10.45-22.7-2.56,2.16-10.49,4.06-12.03,6.64-.97,1.63-1.05,5.4-2.03,7.83-3.56,8.8-22.38,30.8-30.56,34.96-1.08.55-3.05,1.36-4.23,1.15-.25-.04-4.4-1.96-4.57-2.15-.32-.38-.63-2.96-.68-3.75-.37-6.27,13.73-26.83,18.48-32.01,1.83-2,6.57-5.2,7.49-6.67,1.18-1.89-1.16-3.06,3.21-5.88,5.39-3.48,11.68-2.73,13.28,4.11,4.1-3.22,9.98-4.51,14.1-7.74,3.48-2.73,10.33-15.23,13.39-15.24,5.22-.03.2,5.88-1.38,7.53-8.68,9.11-13.91,13.16-20.14,24.95-1.14,2.15-3.39,7.58-2.72,9.77l1.58,1.08c1.33-.13,12.1-7.93,13.88-9.4,4.92-4.04,12.04-11.1,16.46-15.95,3.44-3.78,9.1-12.62,12.37-15.1,2.03-1.54,4.92-1.39,4.17,1.33-.95,3.43-11.73,11.78-14.67,14.9-5.82,6.18-10.68,13.45-15.64,20.33l-13.99,16.65c7.5.45,13.82,1.01,21,3.32,6.88,2.21,9.81,3.18,13.41,9.85,3.37,6.24,3.46,12.33,2.55,19.25.37.51,9.83,1.67,11.83,2.3,5.85,1.85,19.38,9.57,20.82,15.84,1.28,5.58-3.6,4.16-6.05.4-1.5-2.3-1.6-5.36-2.43-7.09ZM519.29,135.47c-5.31-2.12-22.39,12.27-9.52,11.27,5.33-.42,9.01-6.33,9.52-11.27ZM473.88,109.14c1.93-1.88,3.97-4.75,5.93-6.76-8.33-.42-19.89,5.59-20.45,14.78,2.46,2.44,12.53-6.08,14.52-8.01ZM451.18,81.52c-4.26,5.59-10.7,15.54-12.74,22.13-1.41,4.54-.33,8.57,5.22,6.62,5.9-2.08,21.49-19.88,25.14-25.59,1.12-1.74,7.7-13.82,6.77-14.71-3.87,2.1-9.43-.86-12.36-.41-1.97.3-10.48,9.91-12.03,11.95ZM465.71,68.56c1.73.26,9.7.75,9.16-1.74-.88-4.03-9.95.78-9.16,1.74ZM465,65.04c2.3-1.1,6.23-.71,7.75-2.8-2.82-.39-5.95.5-7.75,2.8Z"/><path d="M431.86,55.19c-.34-1.83.34-1.24,1.4-1.73,3.56-1.64,8.22-2.57,10.6-6.34,3.44-5.45-3.17-10.17-8.17-10.89-9.57-1.39-28.8,10.19-31.83,19.54-5.68,17.55,16.42,11.31,24.25,17.96,1.84,1.57,5.45,7.04,5.73,9.47.18,1.58-1.51,7.16-2.2,8.75-8.52,19.52-43.19,44.74-64.38,45.4-7.87.25-20.28-3.34-24.13-10.8-3.26-6.33-3.73-17.38-1.53-24.17-.68-.61-8.11,1.77-9.8,1.76-1.31,0-2.04-.86-3.28-1.03-.83-.11-1.81.57-2.67.45-1.29-.18-5.32-2.94-6.48-3.99-6.72-6.05-6.91-14.42-4.08-22.42,2.97-8.4,12.32-2.63,12.28,1.62-.03,2.57-4.99,12.58-8.21,7.4-2.06-3.31,8.07-10.26,1.4-11.29-3.12-.48-3.48,1.84-4.2,4.23-5.31,17.64,9.48,28.17,25.04,20.08,4.24-8.27,7.34-18.65,14.48-24.97,5.16-4.56,14.56-10.09,19.9-3.11-.3,1.39-.37,3.25-.87,4.51-1.44,3.59-14.51,16.36-18.05,18.58-4.05,2.54-9.06,3.84-12.97,6.76-.55,3.2-1.58,7.03-1.76,10.21-.84,14.36,7.47,23.23,21.65,23.96,6.9.36,20.75-3.1,26.58-6.81,13.81-8.8,28.67-18.72,37.11-33.32,4.58-7.93,6.08-13.98-1.81-20.08-7.26-5.61-10.92-2.15-17.99-4.57-8.93-3.06-8.34-12.74-3.81-19.34,6.59-9.58,28.66-23.03,39.48-13.47,2.91,2.57,2.23,5.54,4.19,8.47,3.08-2.07,7.45-5.68,11.29-5.68,6.23,0,11.36,8.12,4.96,7.12-1.84-.29-2.7-2.63-4.57-3.22-8.73-2.74-17.95,12.21-27.53,10.95ZM345.85,96.73c.92.92,9.08-3.68,10.51-4.63,3.78-2.53,16.99-14.98,17.36-18.94.63-6.66-10.75-2.28-13.8-.03-4.91,3.61-10.67,12.81-12.77,18.26-.32.84-1.63,5.03-1.31,5.35Z"/><path d="M776.54,136.26c-9.92-4.94-1.48-23.88,8.59-20.89.53.16,3.38,1.88,3.5,2.29,1.64,5.84-2.31,15.09-7.04,18.86,13.07,6.86,27.36.7,40.73-1.56,15.24-2.57,51.64-9.15,65.17-4.24,1.48.54,3.04.91,2.64,2.95-1.34,4.13-13.95-2.04-17.33-2.36-26.48-2.54-61.25,13.43-85.95,9.79-2.15-.32-5.76-2.16-7.08-2.09-.74.04-10.44,6.52-12.74,7.63-20.39,9.74-38.98,10.58-61.13,9.68-30.75-1.24-64.95-24.4-93.18-21.56-8.4.85-22.67,6.75-22.88,16.63-.06,2.84,4.86,8.71,1.36,10.51-3.84,1.96-7.14-5.22-6.96-8.53.21-3.79,9.54-13.7,13.09-15.67,29.22-16.25,73.24,14.24,104.49,16.35,22.01,1.49,48.97.53,68.39-11.29,1.62-.99,7.62-4.35,6.34-6.51ZM780.47,134.38c4.66-3.99,10.76-19.34,1.1-16.93-7.66,1.92-9.87,15.26-3.03,17.9,1.75.68,1.39-.51,1.93-.98Z"/><path d="M981.08,179.14l-40.18,21.44c-4.38,2.28-12.08.31-7.49-5.01,4.71-5.45,18.14-5.43,25.14-7.63,5.38-1.69,16.28-7.53,20.47-11.26.65-.58,3.18-3.54,3.33-4.37,2.52-14.36.54-36.67,16.12-44.49,4.63-2.32,10.39.86,10.45,6.16.02,1.23-2.2,13.74-2.63,15.02-1.04,3.08-7.18,12.26-9.37,15.28-1.67,2.3-10.34,11.44-10.66,12.47-.37,1.21.29,4.72.24,6.15-.31,10.15.44,10.73,3.56,20,1.17,3.48,4.42,11.51-1.97,9.71-.92-4.23-3.59-9.32-4.1-13.51-.8-6.6,1.16-14.07-2.93-19.97ZM987.44,169.96c.61-2.25,2.95-2.99,4.53-4.99,6.57-8.28,14.4-24.85,9.22-35.14-1.48-.31-3.96,4.59-4.69,5.86-5.31,9.23-10.48,20.47-10.9,31.22-.04.89.35,1.74.45,2.62l1.39.43Z"/><path d="M324.44,191.55c-3.74,3.61-12.53,10.6-17.19,12.05-1.36.42-3.16-.22-4.42.52-1.77,1.04-4.74,7.96-6.17,10.03-1.97,2.83-7.85,10.71-10.55,12.14-3.82,2.03-7.13,2.8-10.62-.14-1.49-9.51,6.55-9.11,12.32-11.69,2.4-1.08,13.76-8.46,11.9-11.41-3.08-.95-7.87-7.42-7.98-10.33-.06-1.54,3.95-9.23,5.26-10.12,1.54-1.04,6.43-1.5,7.84-.56.59.39,2.34,9.53,2.28,10.79-.16,3.53-7.45,13.2,3.64,6.5,3.14-1.9,14.6-12.76,15.95-15.76,1.85-4.11,2.25-10.03,3.83-14.48,1.46-4.12,2.53-8.22,7.83-6.79,1.11.39,1.75,3.28,1.64,4.39-.55,5.47-11.33,20.78-15.54,24.84ZM301.41,200.24c2.94-3.33,2.89-20.74-3.57-15.2-4.3,3.68-2.18,13.66,3.57,15.2Z"/></svg>